<svg id="svg3350" xmlns="http://www.w3.org/2000/svg" xmlns:xlink="http://www.w3.org/1999/xlink" viewBox="0 0 87 87" width="87" height="87"><defs><style>.cls-1{fill:url(#linear-gradient);}.cls-2{fill:url(#linear-gradient-2);}.cls-3{fill:url(#linear-gradient-3);}.cls-4{fill:url(#linear-gradient-4);}</style><linearGradient id="linear-gradient" x1="-4.34" y1="60.75" x2="30.65" y2="25.76" gradientTransform="matrix(1.02, 0, 0, -0.98, 4.38, 67.01)" gradientUnits="userSpaceOnUse"><stop offset="0" stop-color="#2b75a4"/><stop offset="0.25" stop-color="#2281b6"/><stop offset="1" stop-color="#08a2ea"/></linearGradient><linearGradient id="linear-gradient-2" x1="20.54" y1="47.67" x2="64.76" y2="3.45" gradientTransform="matrix(1.07, 0, 0, -0.94, 17.42, 45.05)" gradientUnits="userSpaceOnUse"><stop offset="0" stop-color="#0ac6f3"/><stop offset="1" stop-color="#05ccf6"/></linearGradient><linearGradient id="linear-gradient-3" x1="-2.5" y1="24.06" x2="32.61" y2="-11.06" gradientTransform="matrix(1.02, 0, 0, -0.98, 4.01, 67.67)" gradientUnits="userSpaceOnUse"><stop offset="0" stop-color="#1b5384"/><stop offset="1" stop-color="#134f8d"/></linearGradient><linearGradient id="linear-gradient-4" x1="21.17" y1="-1.41" x2="65.32" y2="-45.56" gradientTransform="matrix(1.07, 0, 0, -0.93, 18.74, 42.94)" gradientUnits="userSpaceOnUse"><stop offset="0" stop-color="#08a5ec"/><stop offset="0.22" stop-color="#0e9add"/><stop offset="0.72" stop-color="#1a84c0"/><stop offset="1" stop-color="#1f7cb5"/></linearGradient></defs><path id="path19" class="cls-1" d="M2.19,11.84l33.39-4.6V41.67L0,41.8V14.35A2.5,2.5,0,0,1,2.19,11.84Z"/><g id="g32"><path id="path30" class="cls-2" d="M39.86,6.54,84.11,0A2.53,2.53,0,0,1,87,2.53v39l-47.14.16Z"/></g><g id="g43"><path id="path41" class="cls-3" d="M0,45.4l35.58.21V80.07L2.19,75.46A2.57,2.57,0,0,1,0,73Z"/></g><g id="g58"><path id="path56" class="cls-4" d="M39.86,45.65,87,45.91V84.47A2.53,2.53,0,0,1,84.11,87L39.86,80.67Z"/></g></svg>