<svg id="Windows10X_Logo" xmlns="http://www.w3.org/2000/svg" xmlns:xlink="http://www.w3.org/1999/xlink" viewBox="0 0 412.89 69.11"><defs><style>.cls-1{fill:url(#linear-gradient);}.cls-2{fill:url(#linear-gradient-2);}.cls-3{fill:url(#linear-gradient-3);}.cls-4{fill:url(#linear-gradient-4);}.cls-5{fill:#004bb3;}</style><linearGradient id="linear-gradient" x1="1.52" y1="10.14" x2="29.84" y2="31.79" gradientUnits="userSpaceOnUse"><stop offset="0" stop-color="#00b5fc"/><stop offset="1" stop-color="#007fea"/></linearGradient><linearGradient id="linear-gradient-2" x1="33" y1="4.38" x2="70.28" y2="32.89" gradientUnits="userSpaceOnUse"><stop offset="0" stop-color="#00e7fd"/><stop offset="1" stop-color="#00c1f0"/></linearGradient><linearGradient id="linear-gradient-3" x1="-0.12" y1="36.84" x2="31.11" y2="60.72" gradientUnits="userSpaceOnUse"><stop offset="0" stop-color="#016eed"/><stop offset="1" stop-color="#0025c8"/></linearGradient><linearGradient id="linear-gradient-4" x1="32.28" y1="36.53" x2="70.73" y2="65.93" gradientUnits="userSpaceOnUse"><stop offset="0" stop-color="#03d6fa"/><stop offset="1" stop-color="#0084e7"/></linearGradient></defs><path class="cls-1" d="M28.56,6.41v27a.29.29,0,0,1-.3.3H.3a.29.29,0,0,1-.3-.3V13.48a4,4,0,0,1,3.46-4l24.76-3.4A.29.29,0,0,1,28.56,6.41Z" transform="translate(0 -0.63)"/><path class="cls-2" d="M69.84,4.63V33.37a.29.29,0,0,1-.3.3H32.3a.29.29,0,0,1-.3-.3V5.79a.3.3,0,0,1,.26-.3l33-4.82A4,4,0,0,1,69.84,4.63Z" transform="translate(0 -0.63)"/><path class="cls-3" d="M28.56,37V64a.29.29,0,0,1-.34.29L3.46,60.84a4,4,0,0,1-3.46-4V36.69H28.26A.29.29,0,0,1,28.56,37Z" transform="translate(0 -0.63)"/><path class="cls-4" d="M69.84,37V65.73a4,4,0,0,1-4.58,4l-33-4.82a.3.3,0,0,1-.26-.3V37a.29.29,0,0,1,.3-.3H69.54A.29.29,0,0,1,69.84,37Z" transform="translate(0 -0.63)"/><path class="cls-5" d="M143.34,12.82,131.93,56.11h-5.55l-8.32-31.63a21.28,21.28,0,0,1-.64-4.41h-.12a23.25,23.25,0,0,1-.73,4.35L108.2,56.11h-5.49L90.87,12.82h5.22L104.68,46a23.51,23.51,0,0,1,.68,4.35h.14a26.5,26.5,0,0,1,.87-4.35l8.93-33.21h4.54l8.57,33.45a26.26,26.26,0,0,1,.67,4h.12a24.37,24.37,0,0,1,.76-4.17l8.25-33.33Z" transform="translate(0 -0.63)"/><path class="cls-5" d="M151.09,17.35a2.82,2.82,0,0,1-2.11-.9,3.16,3.16,0,0,1-.88-2.3,3.22,3.22,0,0,1,.88-2.31,2.8,2.8,0,0,1,2.11-.92,2.91,2.91,0,0,1,2.16.92,3.22,3.22,0,0,1,.88,2.31,3.19,3.19,0,0,1-.88,2.27A2.88,2.88,0,0,1,151.09,17.35Zm2.25,38.76h-4.62V25.2h4.62Z" transform="translate(0 -0.63)"/><path class="cls-5" d="M186.65,56.11H182V38.48q0-9.84-6.71-9.84a7.07,7.07,0,0,0-5.73,2.79,10.86,10.86,0,0,0-2.27,7V56.11H162.7V25.2h4.62v5.13h.11q3.27-5.85,9.47-5.85a8.56,8.56,0,0,1,7.24,3.27c1.67,2.19,2.51,5.34,2.51,9.47Z" transform="translate(0 -0.63)"/><path class="cls-5" d="M220,56.11h-4.62V50.86h-.12a11.2,11.2,0,0,1-18.61,1.83q-3.25-4.15-3.25-11.31,0-7.66,3.6-12.29a11.61,11.61,0,0,1,9.61-4.61,9.12,9.12,0,0,1,8.65,5h.12V10.35H220Zm-4.62-14V37.58a9.2,9.2,0,0,0-2.32-6.34,7.5,7.5,0,0,0-5.86-2.6A7.81,7.81,0,0,0,200.54,32q-2.41,3.33-2.42,9.18,0,5.34,2.32,8.44a7.42,7.42,0,0,0,6.25,3.09,7.67,7.67,0,0,0,6.27-3A11.67,11.67,0,0,0,215.37,42.14Z" transform="translate(0 -0.63)"/><path class="cls-5" d="M241.4,56.84a13,13,0,0,1-10.21-4.33q-3.83-4.34-3.82-11.49,0-7.79,4-12.17t10.74-4.37q6.45,0,10.07,4.25t3.62,11.81q0,7.4-3.9,11.84A13.22,13.22,0,0,1,241.4,56.84Zm.34-28.2a8.5,8.5,0,0,0-7,3.25q-2.59,3.24-2.6,9c0,3.66.88,6.55,2.62,8.66a8.63,8.63,0,0,0,7,3.17,8.18,8.18,0,0,0,6.89-3.11Q251,46.46,251,40.72c0-3.87-.8-6.84-2.41-8.94A8.18,8.18,0,0,0,241.74,28.64Z" transform="translate(0 -0.63)"/><path class="cls-5" d="M299.51,25.2l-8.66,30.91h-4.79L280.12,34a14.76,14.76,0,0,1-.45-2.87h-.11a14.53,14.53,0,0,1-.6,2.8l-6.45,22.19h-4.62L259.15,25.2H264l6,23.25a15,15,0,0,1,.4,2.77h.22a14.35,14.35,0,0,1,.51-2.84l6.65-23.18H282l6,23.31a18,18,0,0,1,.43,2.77h.22a13.9,13.9,0,0,1,.48-2.77l5.86-23.31Z" transform="translate(0 -0.63)"/><path class="cls-5" d="M303.11,55V49.68a13.06,13.06,0,0,0,8.31,3q6.09,0,6.09-4.35a3.93,3.93,0,0,0-.52-2.09,5.37,5.37,0,0,0-1.41-1.53,10.8,10.8,0,0,0-2.08-1.19c-.8-.35-1.66-.72-2.58-1.1a32.23,32.23,0,0,1-3.37-1.65,10.21,10.21,0,0,1-2.42-1.87,6.94,6.94,0,0,1-1.47-2.37,8.87,8.87,0,0,1-.49-3.11,7.81,7.81,0,0,1,.93-3.85,8.79,8.79,0,0,1,2.48-2.81,11.23,11.23,0,0,1,3.53-1.7,14.89,14.89,0,0,1,4.11-.57,15.67,15.67,0,0,1,6.7,1.38v5a12.42,12.42,0,0,0-7.32-2.24,8,8,0,0,0-2.34.32,5.46,5.46,0,0,0-1.79.89,4,4,0,0,0-1.16,1.37A3.91,3.91,0,0,0,307.9,33a4.51,4.51,0,0,0,.41,2,4.22,4.22,0,0,0,1.2,1.45,8.86,8.86,0,0,0,1.91,1.15c.76.34,1.61.71,2.57,1.11a37.35,37.35,0,0,1,3.44,1.62A11.8,11.8,0,0,1,320,42.21a7.57,7.57,0,0,1,1.65,2.4,8.32,8.32,0,0,1,.58,3.23,8.07,8.07,0,0,1-.95,4,8.46,8.46,0,0,1-2.52,2.8,10.93,10.93,0,0,1-3.64,1.66,16.42,16.42,0,0,1-4.31.55A15.58,15.58,0,0,1,303.11,55Z" transform="translate(0 -0.63)"/><path class="cls-5" d="M347.88,56.11h-4.62V18.71A10.85,10.85,0,0,1,341.69,20a23.76,23.76,0,0,1-2.31,1.47c-.85.48-1.75.93-2.7,1.36a19,19,0,0,1-2.78,1v-5a25.78,25.78,0,0,0,3.23-1.22c1.13-.52,2.25-1.09,3.35-1.72s2.14-1.3,3.12-2a26.61,26.61,0,0,0,2.53-2h1.75Z" transform="translate(0 -0.63)"/><path class="cls-5" d="M379.33,34.29a45.5,45.5,0,0,1-.92,9.63A23.4,23.4,0,0,1,375.76,51a12.22,12.22,0,0,1-4.25,4.37,11,11,0,0,1-5.74,1.5,10.29,10.29,0,0,1-5.42-1.44,11.72,11.72,0,0,1-4-4.18,22.25,22.25,0,0,1-2.47-6.74,44.17,44.17,0,0,1-.85-9.17,50.62,50.62,0,0,1,.89-10A24,24,0,0,1,356.5,18a12.09,12.09,0,0,1,4.27-4.44,11.41,11.41,0,0,1,5.85-1.49Q379.32,12.1,379.33,34.29Zm-4.74.48q0-18.48-8.2-18.48-8.64,0-8.65,18.81,0,17.55,8.49,17.54T374.59,34.77Z" transform="translate(0 -0.63)"/><path class="cls-5" d="M412.89,56.11h-5.78l-9.3-16.57a15.89,15.89,0,0,1-.93-2.14h-.11c-.19.46-.51,1.17-1,2.14l-9.58,16.57h-5.8L394,34.35,381.5,12.82h5.8L395.56,28a33.15,33.15,0,0,1,1.44,3h.11a33.21,33.21,0,0,1,1.58-3.14l8.59-15.1h5.44L400,34.29Z" transform="translate(0 -0.63)"/></svg>